<?xml version="1.0" encoding="UTF-8" standalone="no"?>
<svg
   xmlns="http://www.w3.org/2000/svg"
   width="180mm"
   height="115mm"
   viewBox="0 0 180 115"
   version="1.1"
   id="svg">
  <g
     id="layer1">
    <path
       style="fill:none;stroke:#000000;stroke-width:0.5px"
       d="M 85,0 L 55,100"
       id="symmetryAxis" />
    <text
       id="symmetryAxisText"
       x="90"
       y="15"
       style="font-size:5px;font-family:sans-serif"
       xml:space="preserve">symmetry plane of boat</text>
    <path
       id="symmetryAxisTextPointer"
       d="m 89,14 -8,2"
       style="fill:none;stroke:#000000;stroke-width:0.15px" />
    <path
       id="water1"
       d="M 40,80 c 2 1, 3 1, 5 1 c 2 0, 3 0, 5 -1 c 2 -1, 3 -1, 5 -1 c 2 0,3 0, 5 1"
       style="fill:none;stroke:#000000;stroke-width:0.15px" />
    <path
       id="water2"
       d="M 60,80 c 2 1, 3 1, 5 1 c 2 0, 3 0, 5 -1 c 2 -1, 3 -1, 5 -1 c 2 0, 3 0, 5 1"
       style="fill:none;stroke:#000000;stroke-width:0.15px" />
    <path
       id="water3"
       d="M 80,80 c 2 1, 3 1, 5 1 c 2 0, 3 0, 5 -1 c 2 -1, 3 -1, 5 -1 c 2 0, 3 0, 5 1"
       style="fill:none;stroke:#000000;stroke-width:0.15px" />
    <path
       id="water4"
       d="M 100,80 c 2 1, 3 1, 5 1 c 2 0, 3 0, 5 -1 c 2 -1, 3 -1, 5 -1 c 2 0, 3 0, 5 1"
       style="fill:none;stroke:#000000;stroke-width:0.15px" />
    <text
       id="waterText"
       x="100"
       y="75"
       style="font-size:5px;font-family:sans-serif"
       xml:space="preserve">water surface</text>
    <path
       id="waterTextPointer"
       d="m 99,74 -9,5"
       style="fill:none;stroke:#000000;stroke-width:0.15px" />
	   
    <path
       style="fill:none;stroke:#000000;stroke-width:0.25px"
       d="M 35,94 L 75 106"
       id="horizontalFoil" />
    <text
       id="horizontalFoilText"
       x="80"
       y="102"
       style="font-size:5px;font-family:sans-serif"
       xml:space="preserve">horizontal foil(s)</text>

    <path
       style="fill:none;stroke:#00BB00;stroke-width:0.15px"
       d="M 55,106 l 20 0 M 58,106 Q 58 103.5, 59 101"
       id="lambda" />
    <text
       id="lambdaText"
       x="54"
       y="105"
       style="font-size:5px;font-family:sans-serif;fill:#00BB00"
       xml:space="preserve">λ</text>

    <path
       id="horizontalFoilTextPointer"
       d="m 79,101 -9,2"
       style="fill:none;stroke:#000000;stroke-width:0.15px" />

    <path
       id="hull"
       d="M 65,66.666 c -2.5 -0.75,-5 -1.5,-2 -11.5 l 10 3 c -3 10, -5.5 9.25,-8 8.5"
       style="fill:none;stroke:#000000;stroke-width:0.25px" />
    <text
       id="hullFoilText"
       x="80"
       y="71"
       style="font-size:5px;font-family:sans-serif"
       xml:space="preserve">hull</text>
    <path
       id="hullTextPointer"
       d="m 79,69 -8,-4"
       style="fill:none;stroke:#000000;stroke-width:0.15px" />

    <path
       id="wing1"
       d="M 63,55.166 l -25.5 -24"
       style="fill:none;stroke:#000000;stroke-width:0.25px" />
    <path
       id="wing2"
       d="M 73,58.166 l 34.5 -6"
       style="fill:none;stroke:#000000;stroke-width:0.25px" />
    <text
       id="wingFoilText"
       x="93"
       y="60"
       style="font-size:5px;font-family:sans-serif"
       xml:space="preserve">wing</text>
    <path
       id="hullTextPointer"
       d="m 92,59 -6,-2"
       style="fill:none;stroke:#000000;stroke-width:0.15px" />
	
	<path
       id="sail"
       d="M 70,50 l -8.5 -8 c 6 -20, 5 -20, 20 -50"
       style="fill:none;stroke:#000000;stroke-width:0.25px" />
    <text
       id="sailText"
       x="83"
       y="30"
       style="font-size:5px;font-family:sans-serif"
       xml:space="preserve">sail</text>
    <path
       id="hullTextPointer"
       d="m 82,28 -8,-4"
       style="fill:none;stroke:#000000;stroke-width:0.15px" />
 
    <path
       id="helm"
       d="M 90,55 l 10 -5 l 10 2 l 10 -3 l -7 1 l -5 -2 m 12 1 l -6 -1 l -5 -2"
       style="fill:none;stroke:#000000;stroke-width:0.25px" />
    <circle
       id="helmHead"
       cx="122" cy="48" r="2" 
       stroke="#000000" fill="transparent" stroke-width="0.25px"/>   
    <text
       id="helmText"
       x="123"
       y="58"
       style="font-size:5px;font-family:sans-serif"
       xml:space="preserve">helm</text>
    <path
       id="helmTextPointer"
       d="m 122,56 -8,-4"
       style="fill:none;stroke:#000000;stroke-width:0.15px" />

    <path
       id="forceWeightHelm"
       d="M 107,62 l 3 3 l 3 -3 m -2 2 l 0 -10 m -2 0 l 0 10"
       style="fill:none;stroke:#FF0000;stroke-width:0.25px" />
    <text
       id="forceWeightHelmText"
       x="114"
       y="62"
       style="font-size:5px;font-family:sans-serif;fill:#FF0000">F<tspan baseline-shift="sub" style="font-size:3.5px">w,h</tspan></text>

    <path
       id="forceWeightBoat"
       d="M 67,53 l 3 3 l 3 -3 m -2 2 l 0 -5 m -2 0 l 0 5"
       style="fill:none;stroke:#FF0000;stroke-width:0.25px" />
    <text
       id="forceWeightBoatText"
       x="74"
       y="53"
       style="font-size:5px;font-family:sans-serif;fill:#FF0000">F<tspan baseline-shift="sub" style="font-size:3.5px">w,b</tspan></text>

    <path
       id="forceSail"
       d="M 72,15 l -3.75 2.5 l 2.5 3.75 m -1.5 -2.45 l 5 1.5 m 0.6 -2 l -5 -1.5"
       style="fill:none;stroke:#FF0000;stroke-width:0.25px" />
    <text
       id="forceSailText"
       x="74"
       y="15"
       style="font-size:5px;font-family:sans-serif;fill:#FF0000">F<tspan baseline-shift="sub" style="font-size:3.5px">s</tspan></text>

    <path
       id="forceFoilVertical"
       d="M 63,96 l 3.75 -2.5 l -2.5 -3.75 m 1.5 2.45 l -5 -1.5 m -0.6 2 l 5 1.5"
       style="fill:none;stroke:#FF0000;stroke-width:0.25px" />
    <text
       id="forceFoilVertical"
       x="68"
       y="95"
       style="font-size:5px;font-family:sans-serif;fill:#FF0000">F<tspan baseline-shift="sub" style="font-size:3.5px">f,v</tspan></text>

    <path
       id="forceFoilHorizontal"
       d="M 61.6,90 l -2.5 -3.75 l -3.75 2.5m 2.45 -1.5 l -3.6 12 m 2 0.6 l 3.6 -12"
       style="fill:none;stroke:#FF0000;stroke-width:0.25px" />
    <text
       id="forceFoilHorizontalText"
       x="47"
       y="95"
       style="font-size:5px;font-family:sans-serif;fill:#FF0000">F<tspan baseline-shift="sub" style="font-size:3.5px">f,h</tspan></text>

    <path
       id="heightBoatCOG"
       d="M 54 90 m -1 -0.3 l 2 0.6 m -1 -0.3 l 12.3 -41 m -1 -0.3 l 2 0.6"
       style="fill:none;stroke:#0000FF;stroke-width:0.25px" />
    <text
       id="heightBoatCOGText"
       x="60"
       y="74"
       style="font-size:5px;font-family:sans-serif;fill:#0000FF">h<tspan baseline-shift="sub" style="font-size:3.5px">cog,b</tspan></text>

    <path
       id="heightHelmCOG"
       d="M 50 88.8 m -1 -0.3 l 2 0.6 m -1 -0.3 l 15 -50 m -1 -0.3 l 2 0.6"
       style="fill:none;stroke:#0000FF;stroke-width:0.25px" />
    <text
       id="heightHelmCOGText"
       x="46"
       y="60"
       style="font-size:5px;font-family:sans-serif;fill:#0000FF">h<tspan baseline-shift="sub" style="font-size:3.5px">cog,h</tspan></text>

    <path
       id="heightSailCOE"
       d="M 36 84.6 m -1 -0.3 l 2 0.6 m -1 -0.3 l 21 -70 m -1 -0.3 l 2 0.6"
       style="fill:none;stroke:#0000FF;stroke-width:0.25px" />
    <text
       id="heightSailCOFText"
       x="35"
       y="45"
       style="font-size:5px;font-family:sans-serif;fill:#0000FF">h<tspan baseline-shift="sub" style="font-size:3.5px">coe,s</tspan></text>

    <path
       id="widthHelmCOG"
       d="M 73 40 m -0.3 1 l 0.6 -2 m -0.3 1 l 37 11.1 m -0.3 1 l 0.6 -2"
       style="fill:none;stroke:#0000FF;stroke-width:0.25px" />
    <text
       id="widthHelmCOGText"
       x="85"
       y="40"
       style="font-size:5px;font-family:sans-serif;fill:#0000FF">w<tspan baseline-shift="sub" style="font-size:3.5px">cog,h</tspan></text>
  </g>
</svg>
